<svg width="64" height="64" viewBox="0 0 64 64" fill="none" xmlns="http://www.w3.org/2000/svg">
<path d="M0 16C0 7.16343 7.16344 0 16 0H47.9978C56.8343 0 63.9977 7.16344 63.9977 16V47.9978C63.9977 56.8343 56.8343 63.9977 47.9977 63.9977H16C7.16343 63.9977 0 56.8343 0 47.9977V16Z" fill="#FAFAFA"/>
<path d="M26.034 40.5913V23.1368H32.9204C34.2443 23.1368 35.3721 23.3896 36.3039 23.8953C37.2357 24.3953 37.946 25.0913 38.4346 25.9834C38.9289 26.8697 39.1761 27.8924 39.1761 29.0515C39.1761 30.2106 38.9261 31.2334 38.4261 32.1197C37.9261 33.0061 37.2017 33.6964 36.2528 34.1907C35.3096 34.6851 34.1676 34.9322 32.8267 34.9322H28.4375V31.9748H32.2301C32.9403 31.9748 33.5255 31.8527 33.9857 31.6084C34.4517 31.3584 34.7982 31.0146 35.0255 30.5771C35.2585 30.1339 35.375 29.6254 35.375 29.0515C35.375 28.472 35.2585 27.9663 35.0255 27.5345C34.7982 27.097 34.4517 26.7589 33.9857 26.5203C33.5198 26.276 32.9289 26.1538 32.213 26.1538H29.7244V40.5913H26.034Z" fill="#171717"/>
</svg>
